# MagicaVoxel @ Ephtracy

# group
g Fence

# material
mtllib Fence.mtl
usemtl palette

# normals
vn -1 0 0
vn 1 0 0
vn 0 0 1
vn 0 0 -1
vn 0 -1 0
vn 0 1 0

# texcoords
vt 0.306641 0.5
vt 0.310547 0.5
vt 0.365234 0.5
vt 0.373047 0.5

# verts
v -1.5 0 7.5
v -1.5 0 6.5
v -1.5 0 5.5
v -1.5 0 -5.5
v -1.5 0 -7.5
v -1.5 1 7.5
v -1.5 1 6.5
v -1.5 1 5.5
v -1.5 1 -6.5
v -1.5 1 -7.5
v -1.5 3 7.5
v -1.5 3 6.5
v -1.5 3 -5.5
v -1.5 3 -6.5
v -1.5 3 -7.5
v -1.5 4 7.5
v -1.5 4 5.5
v -1.5 4 -5.5
v -1.5 4 -6.5
v -1.5 4 -7.5
v -0.5 1 5.5
v -0.5 1 3.5
v -0.5 1 2.5
v -0.5 1 1.5
v -0.5 1 0.5
v -0.5 1 -0.5
v -0.5 1 -1.5
v -0.5 1 -2.5
v -0.5 1 -3.5
v -0.5 1 -4.5
v -0.5 1 -5.5
v -0.5 2 5.5
v -0.5 2 3.5
v -0.5 2 2.5
v -0.5 2 1.5
v -0.5 2 0.5
v -0.5 2 -0.5
v -0.5 2 -1.5
v -0.5 2 -2.5
v -0.5 2 -3.5
v -0.5 2 -4.5
v -0.5 2 -5.5
v -0.5 3 5.5
v -0.5 3 4.5
v -0.5 3 3.5
v -0.5 3 2.5
v -0.5 3 1.5
v -0.5 3 0.5
v -0.5 3 -0.5
v -0.5 3 -2.5
v -0.5 3 -3.5
v -0.5 3 -4.5
v -0.5 3 -5.5
v -0.5 4 6.5
v -0.5 4 5.5
v -0.5 4 4.5
v -0.5 4 3.5
v -0.5 4 2.5
v -0.5 4 1.5
v -0.5 4 0.5
v -0.5 4 -0.5
v -0.5 4 -2.5
v -0.5 4 -3.5
v -0.5 4 -4.5
v -0.5 4 -5.5
v -0.5 4 -6.5
v -0.5 5 5.5
v -0.5 5 3.5
v -0.5 5 0.5
v -0.5 5 -0.5
v -0.5 5 -2.5
v -0.5 5 -3.5
v -0.5 5 -4.5
v -0.5 5 -5.5
v -0.5 6 5.5
v -0.5 6 3.5
v -0.5 6 0.5
v -0.5 6 -0.5
v -0.5 6 -2.5
v -0.5 6 -3.5
v -0.5 6 -4.5
v -0.5 6 -5.5
v -0.5 7 6.5
v -0.5 7 5.5
v -0.5 7 -5.5
v -0.5 7 -6.5
v 0.5 1 5.5
v 0.5 1 3.5
v 0.5 1 2.5
v 0.5 1 1.5
v 0.5 1 0.5
v 0.5 1 -0.5
v 0.5 1 -1.5
v 0.5 1 -2.5
v 0.5 1 -3.5
v 0.5 1 -4.5
v 0.5 1 -5.5
v 0.5 2 5.5
v 0.5 2 3.5
v 0.5 2 2.5
v 0.5 2 1.5
v 0.5 2 0.5
v 0.5 2 -0.5
v 0.5 2 -1.5
v 0.5 2 -2.5
v 0.5 2 -3.5
v 0.5 2 -4.5
v 0.5 2 -5.5
v 0.5 3 5.5
v 0.5 3 4.5
v 0.5 3 3.5
v 0.5 3 2.5
v 0.5 3 1.5
v 0.5 3 0.5
v 0.5 3 -0.5
v 0.5 3 -2.5
v 0.5 3 -3.5
v 0.5 3 -4.5
v 0.5 3 -5.5
v 0.5 4 6.5
v 0.5 4 5.5
v 0.5 4 4.5
v 0.5 4 3.5
v 0.5 4 2.5
v 0.5 4 1.5
v 0.5 4 0.5
v 0.5 4 -0.5
v 0.5 4 -2.5
v 0.5 4 -3.5
v 0.5 4 -4.5
v 0.5 4 -5.5
v 0.5 4 -6.5
v 0.5 5 5.5
v 0.5 5 3.5
v 0.5 5 0.5
v 0.5 5 -0.5
v 0.5 5 -2.5
v 0.5 5 -3.5
v 0.5 5 -4.5
v 0.5 5 -5.5
v 0.5 6 5.5
v 0.5 6 3.5
v 0.5 6 0.5
v 0.5 6 -0.5
v 0.5 6 -2.5
v 0.5 6 -3.5
v 0.5 6 -4.5
v 0.5 6 -5.5
v 0.5 7 6.5
v 0.5 7 5.5
v 0.5 7 -5.5
v 0.5 7 -6.5
v 1.5 0 7.5
v 1.5 0 5.5
v 1.5 0 -5.5
v 1.5 0 -6.5
v 1.5 0 -7.5
v 1.5 1 6.5
v 1.5 1 5.5
v 1.5 2 7.5
v 1.5 2 6.5
v 1.5 2 5.5
v 1.5 2 -5.5
v 1.5 2 -6.5
v 1.5 2 -7.5
v 1.5 3 7.5
v 1.5 3 6.5
v 1.5 3 -5.5
v 1.5 3 -6.5
v 1.5 4 7.5
v 1.5 4 5.5
v 1.5 4 -5.5
v 1.5 4 -7.5
v -1.5 0 7.5
v -1.5 1 7.5
v -1.5 3 7.5
v -1.5 4 7.5
v -0.5 1 7.5
v -0.5 3 7.5
v -0.5 4 7.5
v 0.5 0 7.5
v 0.5 2 7.5
v 1.5 0 7.5
v 1.5 2 7.5
v 1.5 3 7.5
v 1.5 4 7.5
v -0.5 4 6.5
v -0.5 7 6.5
v 0.5 4 6.5
v 0.5 7 6.5
v -1.5 0 -5.5
v -1.5 3 -5.5
v -1.5 4 -5.5
v -0.5 0 -5.5
v -0.5 1 -5.5
v -0.5 2 -5.5
v -0.5 3 -5.5
v -0.5 4 -5.5
v -0.5 5 -5.5
v -0.5 6 -5.5
v -0.5 7 -5.5
v 0.5 1 -5.5
v 0.5 2 -5.5
v 0.5 3 -5.5
v 0.5 4 -5.5
v 0.5 5 -5.5
v 0.5 6 -5.5
v 0.5 7 -5.5
v 1.5 0 -5.5
v 1.5 2 -5.5
v 1.5 3 -5.5
v 1.5 4 -5.5
v -1.5 0 5.5
v -1.5 1 5.5
v -1.5 4 5.5
v -0.5 0 5.5
v -0.5 1 5.5
v -0.5 2 5.5
v -0.5 3 5.5
v -0.5 4 5.5
v -0.5 5 5.5
v -0.5 6 5.5
v -0.5 7 5.5
v 0.5 0 5.5
v 0.5 1 5.5
v 0.5 2 5.5
v 0.5 3 5.5
v 0.5 4 5.5
v 0.5 5 5.5
v 0.5 6 5.5
v 0.5 7 5.5
v 1.5 0 5.5
v 1.5 1 5.5
v 1.5 2 5.5
v 1.5 4 5.5
v -0.5 4 -6.5
v -0.5 7 -6.5
v 0.5 4 -6.5
v 0.5 7 -6.5
v -1.5 0 -7.5
v -1.5 1 -7.5
v -1.5 3 -7.5
v -1.5 4 -7.5
v 0.5 1 -7.5
v 0.5 2 -7.5
v 0.5 3 -7.5
v 0.5 4 -7.5
v 1.5 0 -7.5
v 1.5 2 -7.5
v 1.5 4 -7.5
v -1.5 0 7.5
v 0.5 0 7.5
v 1.5 0 7.5
v -1.5 0 6.5
v -0.5 0 6.5
v -1.5 0 5.5
v -0.5 0 5.5
v 0.5 0 5.5
v 1.5 0 5.5
v -1.5 0 -5.5
v -0.5 0 -5.5
v 1.5 0 -5.5
v -0.5 0 -6.5
v 1.5 0 -6.5
v -1.5 0 -7.5
v 1.5 0 -7.5
v -0.5 1 5.5
v 0.5 1 5.5
v -0.5 1 3.5
v 0.5 1 3.5
v -0.5 1 2.5
v 0.5 1 2.5
v -0.5 1 1.5
v 0.5 1 1.5
v -0.5 1 0.5
v 0.5 1 0.5
v -0.5 1 -0.5
v 0.5 1 -0.5
v -0.5 1 -1.5
v 0.5 1 -1.5
v -0.5 1 -2.5
v 0.5 1 -2.5
v -0.5 1 -3.5
v 0.5 1 -3.5
v -0.5 1 -4.5
v 0.5 1 -4.5
v -0.5 1 -5.5
v 0.5 1 -5.5
v -0.5 3 5.5
v 0.5 3 5.5
v -0.5 3 4.5
v 0.5 3 4.5
v -0.5 3 3.5
v 0.5 3 3.5
v -0.5 3 2.5
v 0.5 3 2.5
v -0.5 3 1.5
v 0.5 3 1.5
v -0.5 3 0.5
v 0.5 3 0.5
v -0.5 3 -0.5
v 0.5 3 -0.5
v -0.5 3 -2.5
v 0.5 3 -2.5
v -0.5 3 -3.5
v 0.5 3 -3.5
v -0.5 3 -4.5
v 0.5 3 -4.5
v -0.5 3 -5.5
v 0.5 3 -5.5
v -0.5 5 5.5
v 0.5 5 5.5
v -0.5 5 3.5
v 0.5 5 3.5
v -0.5 5 0.5
v 0.5 5 0.5
v -0.5 5 -0.5
v 0.5 5 -0.5
v -0.5 5 -2.5
v 0.5 5 -2.5
v -0.5 5 -3.5
v 0.5 5 -3.5
v -0.5 5 -4.5
v 0.5 5 -4.5
v -0.5 5 -5.5
v 0.5 5 -5.5
v -0.5 2 5.5
v 0.5 2 5.5
v -0.5 2 3.5
v 0.5 2 3.5
v -0.5 2 2.5
v 0.5 2 2.5
v -0.5 2 1.5
v 0.5 2 1.5
v -0.5 2 0.5
v 0.5 2 0.5
v -0.5 2 -0.5
v 0.5 2 -0.5
v -0.5 2 -1.5
v 0.5 2 -1.5
v -0.5 2 -2.5
v 0.5 2 -2.5
v -0.5 2 -3.5
v 0.5 2 -3.5
v -0.5 2 -4.5
v 0.5 2 -4.5
v -0.5 2 -5.5
v 0.5 2 -5.5
v -1.5 4 7.5
v -0.5 4 7.5
v 1.5 4 7.5
v -0.5 4 6.5
v 0.5 4 6.5
v -1.5 4 5.5
v -0.5 4 5.5
v 0.5 4 5.5
v 1.5 4 5.5
v -0.5 4 4.5
v 0.5 4 4.5
v -0.5 4 3.5
v 0.5 4 3.5
v -0.5 4 2.5
v 0.5 4 2.5
v -0.5 4 1.5
v 0.5 4 1.5
v -0.5 4 0.5
v 0.5 4 0.5
v -0.5 4 -0.5
v 0.5 4 -0.5
v -0.5 4 -2.5
v 0.5 4 -2.5
v -0.5 4 -3.5
v 0.5 4 -3.5
v -0.5 4 -4.5
v 0.5 4 -4.5
v -1.5 4 -5.5
v -0.5 4 -5.5
v 0.5 4 -5.5
v 1.5 4 -5.5
v -1.5 4 -6.5
v -0.5 4 -6.5
v 0.5 4 -6.5
v -1.5 4 -7.5
v 0.5 4 -7.5
v 1.5 4 -7.5
v -0.5 6 5.5
v 0.5 6 5.5
v -0.5 6 3.5
v 0.5 6 3.5
v -0.5 6 0.5
v 0.5 6 0.5
v -0.5 6 -0.5
v 0.5 6 -0.5
v -0.5 6 -2.5
v 0.5 6 -2.5
v -0.5 6 -3.5
v 0.5 6 -3.5
v -0.5 6 -4.5
v 0.5 6 -4.5
v -0.5 6 -5.5
v 0.5 6 -5.5
v -0.5 7 6.5
v 0.5 7 6.5
v -0.5 7 5.5
v 0.5 7 5.5
v -0.5 7 -5.5
v 0.5 7 -5.5
v -0.5 7 -6.5
v 0.5 7 -6.5

# faces
f 6/2/1 2/2/1 1/2/1
f 7/1/1 3/1/1 2/1/1
f 7/2/1 2/2/1 6/2/1
f 8/1/1 3/1/1 7/1/1
f 9/1/1 5/1/1 4/1/1
f 10/1/1 5/1/1 9/1/1
f 11/1/1 7/1/1 6/1/1
f 12/2/1 8/2/1 7/2/1
f 12/1/1 7/1/1 11/1/1
f 13/1/1 9/1/1 4/1/1
f 14/2/1 10/2/1 9/2/1
f 14/1/1 9/1/1 13/1/1
f 15/2/1 10/2/1 14/2/1
f 16/2/1 12/2/1 11/2/1
f 17/2/1 8/2/1 12/2/1
f 17/2/1 12/2/1 16/2/1
f 18/2/1 14/2/1 13/2/1
f 19/1/1 15/1/1 14/1/1
f 19/2/1 14/2/1 18/2/1
f 20/1/1 15/1/1 19/1/1
f 32/4/1 22/4/1 21/4/1
f 33/3/1 23/3/1 22/3/1
f 33/4/1 22/4/1 32/4/1
f 34/4/1 24/4/1 23/4/1
f 34/3/1 23/3/1 33/3/1
f 35/1/1 25/1/1 24/1/1
f 35/4/1 24/4/1 34/4/1
f 36/4/1 26/4/1 25/4/1
f 36/1/1 25/1/1 35/1/1
f 37/3/1 27/3/1 26/3/1
f 37/4/1 26/4/1 36/4/1
f 38/4/1 28/4/1 27/4/1
f 38/3/1 27/3/1 37/3/1
f 39/2/1 29/2/1 28/2/1
f 39/4/1 28/4/1 38/4/1
f 40/1/1 30/1/1 29/1/1
f 40/2/1 29/2/1 39/2/1
f 41/4/1 31/4/1 30/4/1
f 41/1/1 30/1/1 40/1/1
f 42/4/1 31/4/1 41/4/1
f 55/4/1 44/4/1 43/4/1
f 56/3/1 45/3/1 44/3/1
f 56/4/1 44/4/1 55/4/1
f 57/4/1 46/4/1 45/4/1
f 57/3/1 45/3/1 56/3/1
f 58/1/1 47/1/1 46/1/1
f 58/4/1 46/4/1 57/4/1
f 59/4/1 48/4/1 47/4/1
f 59/1/1 47/1/1 58/1/1
f 60/1/1 49/1/1 48/1/1
f 60/4/1 48/4/1 59/4/1
f 61/4/1 50/4/1 49/4/1
f 61/1/1 49/1/1 60/1/1
f 62/3/1 51/3/1 50/3/1
f 62/4/1 50/4/1 61/4/1
f 63/4/1 52/4/1 51/4/1
f 63/3/1 51/3/1 62/3/1
f 64/1/1 53/1/1 52/1/1
f 64/4/1 52/4/1 63/4/1
f 65/1/1 53/1/1 64/1/1
f 67/1/1 55/1/1 54/1/1
f 74/1/1 66/1/1 65/1/1
f 75/1/1 67/1/1 54/1/1
f 75/4/1 68/4/1 67/4/1
f 76/3/1 69/3/1 68/3/1
f 76/4/1 68/4/1 75/4/1
f 77/4/1 70/4/1 69/4/1
f 77/3/1 69/3/1 76/3/1
f 78/2/1 71/2/1 70/2/1
f 78/4/1 70/4/1 77/4/1
f 79/4/1 72/4/1 71/4/1
f 79/2/1 71/2/1 78/2/1
f 80/3/1 73/3/1 72/3/1
f 80/4/1 72/4/1 79/4/1
f 81/4/1 74/4/1 73/4/1
f 81/3/1 73/3/1 80/3/1
f 82/1/1 66/1/1 74/1/1
f 82/4/1 74/4/1 81/4/1
f 83/1/1 75/1/1 54/1/1
f 84/1/1 75/1/1 83/1/1
f 85/1/1 66/1/1 82/1/1
f 86/1/1 66/1/1 85/1/1
f 87/4/2 88/4/2 98/4/2
f 88/3/2 89/3/2 99/3/2
f 98/4/2 88/4/2 99/4/2
f 89/4/2 90/4/2 100/4/2
f 99/3/2 89/3/2 100/3/2
f 90/1/2 91/1/2 101/1/2
f 100/4/2 90/4/2 101/4/2
f 91/4/2 92/4/2 102/4/2
f 101/1/2 91/1/2 102/1/2
f 92/3/2 93/3/2 103/3/2
f 102/4/2 92/4/2 103/4/2
f 93/4/2 94/4/2 104/4/2
f 103/3/2 93/3/2 104/3/2
f 94/2/2 95/2/2 105/2/2
f 104/4/2 94/4/2 105/4/2
f 95/1/2 96/1/2 106/1/2
f 105/2/2 95/2/2 106/2/2
f 96/4/2 97/4/2 107/4/2
f 106/1/2 96/1/2 107/1/2
f 107/4/2 97/4/2 108/4/2
f 109/4/2 110/4/2 121/4/2
f 110/3/2 111/3/2 122/3/2
f 121/4/2 110/4/2 122/4/2
f 111/4/2 112/4/2 123/4/2
f 122/3/2 111/3/2 123/3/2
f 112/1/2 113/1/2 124/1/2
f 123/4/2 112/4/2 124/4/2
f 113/4/2 114/4/2 125/4/2
f 124/1/2 113/1/2 125/1/2
f 114/1/2 115/1/2 126/1/2
f 125/4/2 114/4/2 126/4/2
f 115/4/2 116/4/2 127/4/2
f 126/1/2 115/1/2 127/1/2
f 116/3/2 117/3/2 128/3/2
f 127/4/2 116/4/2 128/4/2
f 117/4/2 118/4/2 129/4/2
f 128/3/2 117/3/2 129/3/2
f 118/1/2 119/1/2 130/1/2
f 129/4/2 118/4/2 130/4/2
f 130/1/2 119/1/2 131/1/2
f 120/1/2 121/1/2 133/1/2
f 131/1/2 132/1/2 140/1/2
f 120/1/2 133/1/2 141/1/2
f 133/4/2 134/4/2 141/4/2
f 134/3/2 135/3/2 142/3/2
f 141/4/2 134/4/2 142/4/2
f 135/4/2 136/4/2 143/4/2
f 142/3/2 135/3/2 143/3/2
f 136/2/2 137/2/2 144/2/2
f 143/4/2 136/4/2 144/4/2
f 137/4/2 138/4/2 145/4/2
f 144/2/2 137/2/2 145/2/2
f 138/3/2 139/3/2 146/3/2
f 145/4/2 138/4/2 146/4/2
f 139/4/2 140/4/2 147/4/2
f 146/3/2 139/3/2 147/3/2
f 140/1/2 132/1/2 148/1/2
f 147/4/2 140/4/2 148/4/2
f 120/1/2 141/1/2 149/1/2
f 149/1/2 141/1/2 150/1/2
f 148/1/2 132/1/2 151/1/2
f 151/1/2 132/1/2 152/1/2
f 153/1/2 154/1/2 158/1/2
f 158/1/2 154/1/2 159/1/2
f 153/1/2 158/1/2 160/1/2
f 158/2/2 159/2/2 161/2/2
f 160/1/2 158/1/2 161/1/2
f 161/2/2 159/2/2 162/2/2
f 155/2/2 156/2/2 163/2/2
f 156/1/2 157/1/2 164/1/2
f 163/2/2 156/2/2 164/2/2
f 164/1/2 157/1/2 165/1/2
f 160/2/2 161/2/2 166/2/2
f 161/1/2 162/1/2 167/1/2
f 166/2/2 161/2/2 167/2/2
f 163/1/2 164/1/2 168/1/2
f 164/2/2 165/2/2 169/2/2
f 168/1/2 164/1/2 169/1/2
f 166/1/2 167/1/2 170/1/2
f 167/1/2 162/1/2 171/1/2
f 170/1/2 167/1/2 171/1/2
f 168/2/2 169/2/2 172/2/2
f 169/2/2 165/2/2 173/2/2
f 172/2/2 169/2/2 173/2/2
f 178/2/3 175/2/3 174/2/3
f 178/1/3 176/1/3 175/1/3
f 179/2/3 177/2/3 176/2/3
f 179/1/3 176/1/3 178/1/3
f 180/2/3 177/2/3 179/2/3
f 181/2/3 178/2/3 174/2/3
f 181/2/3 179/2/3 178/2/3
f 182/2/3 179/2/3 181/2/3
f 183/1/3 182/1/3 181/1/3
f 184/2/3 179/2/3 182/2/3
f 184/1/3 182/1/3 183/1/3
f 185/1/3 180/1/3 179/1/3
f 185/2/3 179/2/3 184/2/3
f 186/1/3 180/1/3 185/1/3
f 189/1/3 188/1/3 187/1/3
f 190/1/3 188/1/3 189/1/3
f 194/1/3 192/1/3 191/1/3
f 195/1/3 192/1/3 194/1/3
f 196/1/3 192/1/3 195/1/3
f 197/2/3 193/2/3 192/2/3
f 197/1/3 192/1/3 196/1/3
f 198/2/3 193/2/3 197/2/3
f 202/2/3 195/2/3 194/2/3
f 203/2/3 197/2/3 196/2/3
f 204/2/3 197/2/3 203/2/3
f 205/1/3 199/1/3 198/1/3
f 206/1/3 199/1/3 205/1/3
f 207/1/3 201/1/3 200/1/3
f 208/1/3 201/1/3 207/1/3
f 209/2/3 202/2/3 194/2/3
f 209/2/3 203/2/3 202/2/3
f 210/1/3 204/1/3 203/1/3
f 210/2/3 203/2/3 209/2/3
f 211/2/3 205/2/3 204/2/3
f 211/1/3 204/1/3 210/1/3
f 212/2/3 205/2/3 211/2/3
f 213/1/4 214/1/4 216/1/4
f 214/2/4 215/2/4 217/2/4
f 216/1/4 214/1/4 217/1/4
f 217/2/4 215/2/4 218/2/4
f 218/2/4 215/2/4 219/2/4
f 219/2/4 215/2/4 220/2/4
f 216/2/4 217/2/4 224/2/4
f 224/2/4 217/2/4 225/2/4
f 218/2/4 219/2/4 226/2/4
f 226/2/4 219/2/4 227/2/4
f 220/1/4 221/1/4 228/1/4
f 228/1/4 221/1/4 229/1/4
f 222/1/4 223/1/4 230/1/4
f 230/1/4 223/1/4 231/1/4
f 224/1/4 225/1/4 232/1/4
f 225/2/4 226/2/4 233/2/4
f 232/1/4 225/1/4 233/1/4
f 226/1/4 227/1/4 234/1/4
f 233/2/4 226/2/4 234/2/4
f 227/1/4 228/1/4 234/1/4
f 234/1/4 228/1/4 235/1/4
f 236/1/4 237/1/4 238/1/4
f 238/1/4 237/1/4 239/1/4
f 240/1/4 241/1/4 244/1/4
f 241/2/4 242/2/4 244/2/4
f 244/2/4 242/2/4 245/2/4
f 242/1/4 243/1/4 246/1/4
f 245/2/4 242/2/4 246/2/4
f 246/1/4 243/1/4 247/1/4
f 244/1/4 245/1/4 248/1/4
f 240/1/4 244/1/4 248/1/4
f 246/2/4 247/2/4 249/2/4
f 248/1/4 245/1/4 249/1/4
f 245/2/4 246/2/4 249/2/4
f 249/2/4 247/2/4 250/2/4
f 254/2/5 252/2/5 251/2/5
f 255/2/5 252/2/5 254/2/5
f 256/1/5 255/1/5 254/1/5
f 257/2/5 252/2/5 255/2/5
f 257/1/5 255/1/5 256/1/5
f 258/1/5 253/1/5 252/1/5
f 258/2/5 252/2/5 257/2/5
f 259/1/5 253/1/5 258/1/5
f 263/1/5 261/1/5 260/1/5
f 263/2/5 262/2/5 261/2/5
f 264/2/5 262/2/5 263/2/5
f 265/1/5 263/1/5 260/1/5
f 265/1/5 264/1/5 263/1/5
f 266/1/5 264/1/5 265/1/5
f 269/4/5 268/4/5 267/4/5
f 270/4/5 268/4/5 269/4/5
f 271/3/5 270/3/5 269/3/5
f 272/3/5 270/3/5 271/3/5
f 273/4/5 272/4/5 271/4/5
f 274/4/5 272/4/5 273/4/5
f 275/1/5 274/1/5 273/1/5
f 276/1/5 274/1/5 275/1/5
f 277/4/5 276/4/5 275/4/5
f 278/4/5 276/4/5 277/4/5
f 279/3/5 278/3/5 277/3/5
f 280/3/5 278/3/5 279/3/5
f 281/4/5 280/4/5 279/4/5
f 282/4/5 280/4/5 281/4/5
f 283/2/5 282/2/5 281/2/5
f 284/2/5 282/2/5 283/2/5
f 285/1/5 284/1/5 283/1/5
f 286/1/5 284/1/5 285/1/5
f 287/4/5 286/4/5 285/4/5
f 288/4/5 286/4/5 287/4/5
f 291/4/5 290/4/5 289/4/5
f 292/4/5 290/4/5 291/4/5
f 293/3/5 292/3/5 291/3/5
f 294/3/5 292/3/5 293/3/5
f 295/4/5 294/4/5 293/4/5
f 296/4/5 294/4/5 295/4/5
f 297/1/5 296/1/5 295/1/5
f 298/1/5 296/1/5 297/1/5
f 299/4/5 298/4/5 297/4/5
f 300/4/5 298/4/5 299/4/5
f 301/1/5 300/1/5 299/1/5
f 302/1/5 300/1/5 301/1/5
f 303/4/5 302/4/5 301/4/5
f 304/4/5 302/4/5 303/4/5
f 305/3/5 304/3/5 303/3/5
f 306/3/5 304/3/5 305/3/5
f 307/4/5 306/4/5 305/4/5
f 308/4/5 306/4/5 307/4/5
f 309/1/5 308/1/5 307/1/5
f 310/1/5 308/1/5 309/1/5
f 313/4/5 312/4/5 311/4/5
f 314/4/5 312/4/5 313/4/5
f 315/3/5 314/3/5 313/3/5
f 316/3/5 314/3/5 315/3/5
f 317/4/5 316/4/5 315/4/5
f 318/4/5 316/4/5 317/4/5
f 319/2/5 318/2/5 317/2/5
f 320/2/5 318/2/5 319/2/5
f 321/4/5 320/4/5 319/4/5
f 322/4/5 320/4/5 321/4/5
f 323/3/5 322/3/5 321/3/5
f 324/3/5 322/3/5 323/3/5
f 325/4/5 324/4/5 323/4/5
f 326/4/5 324/4/5 325/4/5
f 327/4/6 328/4/6 329/4/6
f 329/4/6 328/4/6 330/4/6
f 329/3/6 330/3/6 331/3/6
f 331/3/6 330/3/6 332/3/6
f 331/4/6 332/4/6 333/4/6
f 333/4/6 332/4/6 334/4/6
f 333/1/6 334/1/6 335/1/6
f 335/1/6 334/1/6 336/1/6
f 335/4/6 336/4/6 337/4/6
f 337/4/6 336/4/6 338/4/6
f 337/3/6 338/3/6 339/3/6
f 339/3/6 338/3/6 340/3/6
f 339/4/6 340/4/6 341/4/6
f 341/4/6 340/4/6 342/4/6
f 341/2/6 342/2/6 343/2/6
f 343/2/6 342/2/6 344/2/6
f 343/1/6 344/1/6 345/1/6
f 345/1/6 344/1/6 346/1/6
f 345/4/6 346/4/6 347/4/6
f 347/4/6 346/4/6 348/4/6
f 349/2/6 350/2/6 352/2/6
f 350/1/6 351/1/6 352/1/6
f 352/1/6 351/1/6 353/1/6
f 349/2/6 352/2/6 354/2/6
f 354/2/6 352/2/6 355/2/6
f 353/1/6 351/1/6 356/1/6
f 356/1/6 351/1/6 357/1/6
f 355/4/6 356/4/6 358/4/6
f 358/4/6 356/4/6 359/4/6
f 358/3/6 359/3/6 360/3/6
f 360/3/6 359/3/6 361/3/6
f 360/4/6 361/4/6 362/4/6
f 362/4/6 361/4/6 363/4/6
f 362/1/6 363/1/6 364/1/6
f 364/1/6 363/1/6 365/1/6
f 364/4/6 365/4/6 366/4/6
f 366/4/6 365/4/6 367/4/6
f 366/1/6 367/1/6 368/1/6
f 368/1/6 367/1/6 369/1/6
f 368/4/6 369/4/6 370/4/6
f 370/4/6 369/4/6 371/4/6
f 370/3/6 371/3/6 372/3/6
f 372/3/6 371/3/6 373/3/6
f 372/4/6 373/4/6 374/4/6
f 374/4/6 373/4/6 375/4/6
f 374/1/6 375/1/6 377/1/6
f 377/1/6 375/1/6 378/1/6
f 376/2/6 377/2/6 380/2/6
f 380/2/6 377/2/6 381/2/6
f 378/2/6 379/2/6 382/2/6
f 380/1/6 381/1/6 383/1/6
f 381/1/6 382/1/6 383/1/6
f 382/2/6 379/2/6 384/2/6
f 383/1/6 382/1/6 384/1/6
f 384/2/6 379/2/6 385/2/6
f 386/4/6 387/4/6 388/4/6
f 388/4/6 387/4/6 389/4/6
f 388/3/6 389/3/6 390/3/6
f 390/3/6 389/3/6 391/3/6
f 390/4/6 391/4/6 392/4/6
f 392/4/6 391/4/6 393/4/6
f 392/2/6 393/2/6 394/2/6
f 394/2/6 393/2/6 395/2/6
f 394/4/6 395/4/6 396/4/6
f 396/4/6 395/4/6 397/4/6
f 396/3/6 397/3/6 398/3/6
f 398/3/6 397/3/6 399/3/6
f 398/4/6 399/4/6 400/4/6
f 400/4/6 399/4/6 401/4/6
f 402/1/6 403/1/6 404/1/6
f 404/1/6 403/1/6 405/1/6
f 406/1/6 407/1/6 408/1/6
f 408/1/6 407/1/6 409/1/6
