# MagicaVoxel @ Ephtracy

# group
g Player

# material
mtllib Player.mtl
usemtl palette

# normals
vn -1 0 0
vn 1 0 0
vn 0 0 1
vn 0 0 -1
vn 0 -1 0
vn 0 1 0

# texcoords
vt 0.0839844 0.5
vt 0.119141 0.5
vt 0.146484 0.5
vt 0.177734 0.5
vt 0.181641 0.5
vt 0.583984 0.5
vt 0.974609 0.5
vt 0.978516 0.5
vt 0.982422 0.5
vt 0.986328 0.5

# verts
v -2.5 1 -4.5
v -2.5 1 -5.5
v -2.5 2 -3.5
v -2.5 2 -4.5
v -2.5 2 -5.5
v -2.5 3 -2.5
v -2.5 3 -3.5
v -2.5 3 -4.5
v -2.5 4 -0.5
v -2.5 4 -1.5
v -2.5 4 -2.5
v -2.5 4 -3.5
v -2.5 5 -0.5
v -2.5 5 -1.5
v -2.5 5 -2.5
v -2.5 6 -0.5
v -2.5 6 -1.5
v -2.5 6 -2.5
v -2.5 7 -1.5
v -2.5 7 -2.5
v -2.5 10 -0.5
v -2.5 10 -1.5
v -2.5 10 -2.5
v -2.5 10 -3.5
v -2.5 11 -0.5
v -2.5 11 -3.5
v -2.5 14 -0.5
v -2.5 14 -3.5
v -1.5 0 -0.5
v -1.5 0 -2.5
v -1.5 1 -0.5
v -1.5 1 -1.5
v -1.5 2 -1.5
v -1.5 2 -2.5
v -1.5 3 -2.5
v -1.5 4 -1.5
v -1.5 4 -2.5
v -1.5 7 -2.5
v -1.5 7 -3.5
v -1.5 10 -2.5
v -1.5 10 -3.5
v -1.5 11 0.5
v -1.5 11 -0.5
v -1.5 11 -3.5
v -1.5 11 -4.5
v -1.5 12 0.5
v -1.5 12 -0.5
v -1.5 13 0.5
v -1.5 13 -0.5
v -1.5 14 0.5
v -1.5 14 -0.5
v -1.5 14 -3.5
v -1.5 14 -4.5
v -0.5 9 -6.5
v -0.5 9 -7.5
v -0.5 10 -0.5
v -0.5 10 -1.5
v -0.5 10 -5.5
v -0.5 10 -6.5
v -0.5 10 -7.5
v -0.5 11 -0.5
v -0.5 11 -1.5
v -0.5 11 -4.5
v -0.5 11 -5.5
v -0.5 12 -5.5
v -0.5 12 -6.5
v -0.5 12 -7.5
v -0.5 13 -4.5
v -0.5 13 -5.5
v -0.5 13 -6.5
v -0.5 13 -7.5
v -0.5 14 -1.5
v -0.5 14 -4.5
v -0.5 14 -5.5
v -0.5 14 -6.5
v -0.5 14 -7.5
v -0.5 15 -1.5
v -0.5 15 -4.5
v 0.5 0 -0.5
v 0.5 0 -2.5
v 0.5 1 -0.5
v 0.5 1 -1.5
v 0.5 2 -1.5
v 0.5 2 -2.5
v 0.5 6 -1.5
v 0.5 6 -2.5
v 1.5 10 -0.5
v 1.5 10 -1.5
v 1.5 10 -2.5
v 1.5 10 -3.5
v 1.5 11 -0.5
v 1.5 11 -1.5
v 1.5 11 -2.5
v 1.5 11 -3.5
v -1.5 1 -4.5
v -1.5 1 -5.5
v -1.5 2 -3.5
v -1.5 2 -4.5
v -1.5 2 -5.5
v -1.5 3 -2.5
v -1.5 3 -3.5
v -1.5 3 -4.5
v -1.5 4 -0.5
v -1.5 4 -1.5
v -1.5 4 -2.5
v -1.5 4 -3.5
v -1.5 5 -0.5
v -1.5 5 -1.5
v -1.5 6 -0.5
v -1.5 6 -1.5
v -1.5 10 -0.5
v -1.5 10 -1.5
v -1.5 10 -2.5
v -1.5 10 -3.5
v -1.5 11 -0.5
v -1.5 11 -1.5
v -1.5 11 -2.5
v -1.5 11 -3.5
v -0.5 0 -0.5
v -0.5 0 -2.5
v -0.5 1 -0.5
v -0.5 1 -1.5
v -0.5 2 -1.5
v -0.5 2 -2.5
v -0.5 6 -1.5
v -0.5 6 -2.5
v 0.5 9 -6.5
v 0.5 9 -7.5
v 0.5 10 -0.5
v 0.5 10 -1.5
v 0.5 10 -5.5
v 0.5 10 -6.5
v 0.5 10 -7.5
v 0.5 11 -0.5
v 0.5 11 -1.5
v 0.5 11 -4.5
v 0.5 11 -5.5
v 0.5 12 -5.5
v 0.5 12 -6.5
v 0.5 12 -7.5
v 0.5 13 -4.5
v 0.5 13 -5.5
v 0.5 13 -6.5
v 0.5 13 -7.5
v 0.5 14 -1.5
v 0.5 14 -4.5
v 0.5 14 -5.5
v 0.5 14 -6.5
v 0.5 14 -7.5
v 0.5 15 -1.5
v 0.5 15 -4.5
v 1.5 0 -0.5
v 1.5 0 -2.5
v 1.5 1 -0.5
v 1.5 1 -1.5
v 1.5 2 -1.5
v 1.5 2 -2.5
v 1.5 6 -1.5
v 1.5 6 -2.5
v 1.5 7 -2.5
v 1.5 7 -3.5
v 1.5 10 -2.5
v 1.5 10 -3.5
v 1.5 11 0.5
v 1.5 11 -0.5
v 1.5 11 -3.5
v 1.5 11 -4.5
v 1.5 12 0.5
v 1.5 12 -0.5
v 1.5 13 0.5
v 1.5 13 -0.5
v 1.5 14 0.5
v 1.5 14 -0.5
v 1.5 14 -3.5
v 1.5 14 -4.5
v 2.5 6 -1.5
v 2.5 6 -2.5
v 2.5 7 -1.5
v 2.5 7 -2.5
v 2.5 10 -0.5
v 2.5 10 -1.5
v 2.5 10 -2.5
v 2.5 10 -3.5
v 2.5 11 -0.5
v 2.5 11 -3.5
v 2.5 14 -0.5
v 2.5 14 -3.5
v -1.5 11 0.5
v -1.5 12 0.5
v -1.5 13 0.5
v -1.5 14 0.5
v -0.5 11 0.5
v -0.5 12 0.5
v 0.5 11 0.5
v 0.5 12 0.5
v 1.5 11 0.5
v 1.5 12 0.5
v 1.5 13 0.5
v 1.5 14 0.5
v -2.5 4 -0.5
v -2.5 5 -0.5
v -2.5 6 -0.5
v -2.5 10 -0.5
v -2.5 11 -0.5
v -2.5 14 -0.5
v -1.5 0 -0.5
v -1.5 1 -0.5
v -1.5 4 -0.5
v -1.5 5 -0.5
v -1.5 6 -0.5
v -1.5 10 -0.5
v -1.5 11 -0.5
v -1.5 12 -0.5
v -1.5 13 -0.5
v -1.5 14 -0.5
v -0.5 0 -0.5
v -0.5 1 -0.5
v -0.5 10 -0.5
v -0.5 11 -0.5
v 0.5 0 -0.5
v 0.5 1 -0.5
v 0.5 10 -0.5
v 0.5 11 -0.5
v 1.5 0 -0.5
v 1.5 1 -0.5
v 1.5 10 -0.5
v 1.5 11 -0.5
v 1.5 12 -0.5
v 1.5 13 -0.5
v 1.5 14 -0.5
v 2.5 10 -0.5
v 2.5 11 -0.5
v 2.5 14 -0.5
v -2.5 6 -1.5
v -2.5 7 -1.5
v -2.5 10 -1.5
v -1.5 1 -1.5
v -1.5 2 -1.5
v -1.5 4 -1.5
v -1.5 5 -1.5
v -1.5 6 -1.5
v -1.5 7 -1.5
v -1.5 8 -1.5
v -1.5 9 -1.5
v -1.5 10 -1.5
v -1.5 11 -1.5
v -0.5 1 -1.5
v -0.5 2 -1.5
v -0.5 6 -1.5
v -0.5 7 -1.5
v -0.5 8 -1.5
v -0.5 9 -1.5
v -0.5 10 -1.5
v -0.5 11 -1.5
v -0.5 14 -1.5
v -0.5 15 -1.5
v 0.5 1 -1.5
v 0.5 2 -1.5
v 0.5 6 -1.5
v 0.5 7 -1.5
v 0.5 8 -1.5
v 0.5 9 -1.5
v 0.5 10 -1.5
v 0.5 11 -1.5
v 0.5 14 -1.5
v 0.5 15 -1.5
v 1.5 1 -1.5
v 1.5 2 -1.5
v 1.5 6 -1.5
v 1.5 7 -1.5
v 1.5 8 -1.5
v 1.5 9 -1.5
v 1.5 10 -1.5
v 1.5 11 -1.5
v 2.5 6 -1.5
v 2.5 7 -1.5
v 2.5 10 -1.5
v -2.5 3 -2.5
v -2.5 4 -2.5
v -1.5 3 -2.5
v -1.5 4 -2.5
v -2.5 2 -3.5
v -2.5 3 -3.5
v -1.5 2 -3.5
v -1.5 3 -3.5
v -2.5 1 -4.5
v -2.5 2 -4.5
v -1.5 1 -4.5
v -1.5 2 -4.5
v -0.5 10 -5.5
v -0.5 11 -5.5
v 0.5 10 -5.5
v 0.5 11 -5.5
v -0.5 9 -6.5
v -0.5 10 -6.5
v -0.5 13 -6.5
v -0.5 14 -6.5
v 0.5 9 -6.5
v 0.5 10 -6.5
v 0.5 13 -6.5
v 0.5 14 -6.5
v -2.5 4 -2.5
v -2.5 5 -2.5
v -2.5 6 -2.5
v -2.5 7 -2.5
v -2.5 10 -2.5
v -1.5 0 -2.5
v -1.5 2 -2.5
v -1.5 3 -2.5
v -1.5 4 -2.5
v -1.5 5 -2.5
v -1.5 6 -2.5
v -1.5 7 -2.5
v -1.5 10 -2.5
v -1.5 11 -2.5
v -0.5 0 -2.5
v -0.5 2 -2.5
v -0.5 6 -2.5
v -0.5 7 -2.5
v 0.5 0 -2.5
v 0.5 2 -2.5
v 0.5 6 -2.5
v 0.5 7 -2.5
v 1.5 0 -2.5
v 1.5 2 -2.5
v 1.5 6 -2.5
v 1.5 7 -2.5
v 1.5 10 -2.5
v 1.5 11 -2.5
v 2.5 6 -2.5
v 2.5 7 -2.5
v 2.5 10 -2.5
v -2.5 3 -3.5
v -2.5 4 -3.5
v -2.5 10 -3.5
v -2.5 11 -3.5
v -2.5 14 -3.5
v -1.5 3 -3.5
v -1.5 4 -3.5
v -1.5 7 -3.5
v -1.5 10 -3.5
v -1.5 11 -3.5
v -1.5 14 -3.5
v 1.5 7 -3.5
v 1.5 10 -3.5
v 1.5 11 -3.5
v 1.5 14 -3.5
v 2.5 10 -3.5
v 2.5 11 -3.5
v 2.5 14 -3.5
v -2.5 2 -4.5
v -2.5 3 -4.5
v -1.5 2 -4.5
v -1.5 3 -4.5
v -1.5 11 -4.5
v -1.5 14 -4.5
v -0.5 11 -4.5
v -0.5 13 -4.5
v -0.5 14 -4.5
v -0.5 15 -4.5
v 0.5 11 -4.5
v 0.5 13 -4.5
v 0.5 14 -4.5
v 0.5 15 -4.5
v 1.5 11 -4.5
v 1.5 14 -4.5
v -2.5 1 -5.5
v -2.5 2 -5.5
v -1.5 1 -5.5
v -1.5 2 -5.5
v -0.5 13 -5.5
v -0.5 14 -5.5
v 0.5 13 -5.5
v 0.5 14 -5.5
v -0.5 12 -6.5
v -0.5 13 -6.5
v 0.5 12 -6.5
v 0.5 13 -6.5
v -0.5 9 -7.5
v -0.5 10 -7.5
v -0.5 12 -7.5
v -0.5 13 -7.5
v -0.5 14 -7.5
v 0.5 9 -7.5
v 0.5 10 -7.5
v 0.5 12 -7.5
v 0.5 13 -7.5
v 0.5 14 -7.5
v -1.5 0 -0.5
v -0.5 0 -0.5
v 0.5 0 -0.5
v 1.5 0 -0.5
v -1.5 0 -2.5
v -0.5 0 -2.5
v 0.5 0 -2.5
v 1.5 0 -2.5
v -2.5 1 -4.5
v -1.5 1 -4.5
v -2.5 1 -5.5
v -1.5 1 -5.5
v -2.5 2 -3.5
v -1.5 2 -3.5
v -2.5 2 -4.5
v -1.5 2 -4.5
v -2.5 3 -2.5
v -1.5 3 -2.5
v -2.5 3 -3.5
v -1.5 3 -3.5
v -2.5 4 -0.5
v -1.5 4 -0.5
v -2.5 4 -1.5
v -1.5 4 -1.5
v -2.5 4 -2.5
v -1.5 4 -2.5
v -0.5 6 -1.5
v 0.5 6 -1.5
v 1.5 6 -1.5
v 2.5 6 -1.5
v -0.5 6 -2.5
v 0.5 6 -2.5
v 1.5 6 -2.5
v 2.5 6 -2.5
v -1.5 7 -2.5
v -0.5 7 -2.5
v 0.5 7 -2.5
v 1.5 7 -2.5
v -1.5 7 -3.5
v 1.5 7 -3.5
v -0.5 9 -6.5
v 0.5 9 -6.5
v -0.5 9 -7.5
v 0.5 9 -7.5
v -2.5 10 -0.5
v -1.5 10 -0.5
v -0.5 10 -0.5
v 0.5 10 -0.5
v 1.5 10 -0.5
v 2.5 10 -0.5
v -2.5 10 -1.5
v -1.5 10 -1.5
v -0.5 10 -1.5
v 0.5 10 -1.5
v 1.5 10 -1.5
v 2.5 10 -1.5
v -2.5 10 -2.5
v -1.5 10 -2.5
v 1.5 10 -2.5
v 2.5 10 -2.5
v -2.5 10 -3.5
v -1.5 10 -3.5
v 1.5 10 -3.5
v 2.5 10 -3.5
v -0.5 10 -5.5
v 0.5 10 -5.5
v -0.5 10 -6.5
v 0.5 10 -6.5
v -1.5 11 0.5
v -0.5 11 0.5
v 0.5 11 0.5
v 1.5 11 0.5
v -1.5 11 -0.5
v -0.5 11 -0.5
v 0.5 11 -0.5
v 1.5 11 -0.5
v -1.5 11 -1.5
v -0.5 11 -1.5
v 0.5 11 -1.5
v 1.5 11 -1.5
v -1.5 11 -2.5
v 1.5 11 -2.5
v -1.5 11 -3.5
v 1.5 11 -3.5
v -1.5 11 -4.5
v -0.5 11 -4.5
v 0.5 11 -4.5
v 1.5 11 -4.5
v -0.5 11 -5.5
v 0.5 11 -5.5
v -0.5 13 -6.5
v 0.5 13 -6.5
v -0.5 13 -7.5
v 0.5 13 -7.5
v -1.5 1 -0.5
v -0.5 1 -0.5
v 0.5 1 -0.5
v 1.5 1 -0.5
v -1.5 1 -1.5
v -0.5 1 -1.5
v 0.5 1 -1.5
v 1.5 1 -1.5
v -2.5 2 -4.5
v -1.5 2 -4.5
v -2.5 2 -5.5
v -1.5 2 -5.5
v -2.5 3 -3.5
v -1.5 3 -3.5
v -2.5 3 -4.5
v -1.5 3 -4.5
v -2.5 4 -2.5
v -1.5 4 -2.5
v -2.5 4 -3.5
v -1.5 4 -3.5
v -2.5 6 -0.5
v -1.5 6 -0.5
v -2.5 6 -1.5
v -1.5 6 -1.5
v -1.5 10 -2.5
v 1.5 10 -2.5
v -1.5 10 -3.5
v 1.5 10 -3.5
v -0.5 12 -6.5
v 0.5 12 -6.5
v -0.5 12 -7.5
v 0.5 12 -7.5
v -0.5 13 -5.5
v 0.5 13 -5.5
v -0.5 13 -6.5
v 0.5 13 -6.5
v -1.5 14 0.5
v 1.5 14 0.5
v -2.5 14 -0.5
v -1.5 14 -0.5
v 1.5 14 -0.5
v 2.5 14 -0.5
v -0.5 14 -1.5
v 0.5 14 -1.5
v -2.5 14 -3.5
v -1.5 14 -3.5
v 1.5 14 -3.5
v 2.5 14 -3.5
v -1.5 14 -4.5
v -0.5 14 -4.5
v 0.5 14 -4.5
v 1.5 14 -4.5
v -0.5 14 -5.5
v 0.5 14 -5.5
v -0.5 14 -6.5
v 0.5 14 -6.5
v -0.5 14 -7.5
v 0.5 14 -7.5
v -0.5 15 -1.5
v 0.5 15 -1.5
v -0.5 15 -4.5
v 0.5 15 -4.5

# faces
f 4/9/1 2/9/1 1/9/1
f 5/9/1 2/9/1 4/9/1
f 7/9/1 4/9/1 3/9/1
f 8/9/1 4/9/1 7/9/1
f 11/9/1 7/9/1 6/9/1
f 12/9/1 7/9/1 11/9/1
f 13/5/1 10/5/1 9/5/1
f 14/9/1 11/9/1 10/9/1
f 14/5/1 10/5/1 13/5/1
f 15/9/1 11/9/1 14/9/1
f 16/9/1 14/9/1 13/9/1
f 17/5/1 15/5/1 14/5/1
f 17/9/1 14/9/1 16/9/1
f 18/5/1 15/5/1 17/5/1
f 19/2/1 18/2/1 17/2/1
f 20/2/1 18/2/1 19/2/1
f 22/10/1 20/10/1 19/10/1
f 23/10/1 20/10/1 22/10/1
f 25/8/1 23/8/1 22/8/1
f 25/8/1 24/8/1 23/8/1
f 25/8/1 22/8/1 21/8/1
f 26/8/1 24/8/1 25/8/1
f 27/9/1 26/9/1 25/9/1
f 28/9/1 26/9/1 27/9/1
f 31/4/1 30/4/1 29/4/1
f 32/4/1 30/4/1 31/4/1
f 33/4/1 30/4/1 32/4/1
f 34/4/1 30/4/1 33/4/1
f 35/6/1 34/6/1 33/6/1
f 36/6/1 35/6/1 33/6/1
f 37/6/1 35/6/1 36/6/1
f 40/10/1 39/10/1 38/10/1
f 41/10/1 39/10/1 40/10/1
f 46/9/1 43/9/1 42/9/1
f 47/9/1 43/9/1 46/9/1
f 48/8/1 47/8/1 46/8/1
f 49/8/1 47/8/1 48/8/1
f 50/9/1 49/9/1 48/9/1
f 51/9/1 49/9/1 50/9/1
f 52/9/1 45/9/1 44/9/1
f 53/9/1 45/9/1 52/9/1
f 59/6/1 55/6/1 54/6/1
f 60/6/1 55/6/1 59/6/1
f 61/1/1 57/1/1 56/1/1
f 62/1/1 57/1/1 61/1/1
f 64/6/1 59/6/1 58/6/1
f 65/6/1 64/6/1 63/6/1
f 65/6/1 59/6/1 64/6/1
f 66/3/1 60/3/1 59/3/1
f 66/6/1 59/6/1 65/6/1
f 67/3/1 60/3/1 66/3/1
f 68/6/1 65/6/1 63/6/1
f 69/3/1 66/3/1 65/3/1
f 69/6/1 65/6/1 68/6/1
f 70/3/1 66/3/1 69/3/1
f 73/3/1 69/3/1 68/3/1
f 74/3/1 69/3/1 73/3/1
f 75/6/1 71/6/1 70/6/1
f 76/6/1 71/6/1 75/6/1
f 77/3/1 73/3/1 72/3/1
f 78/3/1 73/3/1 77/3/1
f 81/4/1 80/4/1 79/4/1
f 82/4/1 80/4/1 81/4/1
f 83/4/1 80/4/1 82/4/1
f 84/4/1 80/4/1 83/4/1
f 85/6/1 84/6/1 83/6/1
f 86/6/1 84/6/1 85/6/1
f 91/8/1 88/8/1 87/8/1
f 92/8/1 88/8/1 91/8/1
f 93/8/1 90/8/1 89/8/1
f 94/8/1 90/8/1 93/8/1
f 95/9/2 96/9/2 98/9/2
f 98/9/2 96/9/2 99/9/2
f 97/9/2 98/9/2 101/9/2
f 101/9/2 98/9/2 102/9/2
f 100/9/2 101/9/2 105/9/2
f 105/9/2 101/9/2 106/9/2
f 103/5/2 104/5/2 107/5/2
f 107/5/2 104/5/2 108/5/2
f 107/9/2 108/9/2 109/9/2
f 109/9/2 108/9/2 110/9/2
f 111/8/2 112/8/2 115/8/2
f 115/8/2 112/8/2 116/8/2
f 113/8/2 114/8/2 117/8/2
f 117/8/2 114/8/2 118/8/2
f 119/4/2 120/4/2 121/4/2
f 121/4/2 120/4/2 122/4/2
f 122/4/2 120/4/2 123/4/2
f 123/4/2 120/4/2 124/4/2
f 123/6/2 124/6/2 125/6/2
f 125/6/2 124/6/2 126/6/2
f 127/6/2 128/6/2 132/6/2
f 132/6/2 128/6/2 133/6/2
f 129/1/2 130/1/2 134/1/2
f 134/1/2 130/1/2 135/1/2
f 131/6/2 132/6/2 137/6/2
f 136/6/2 137/6/2 138/6/2
f 137/6/2 132/6/2 138/6/2
f 132/3/2 133/3/2 139/3/2
f 138/6/2 132/6/2 139/6/2
f 139/3/2 133/3/2 140/3/2
f 136/6/2 138/6/2 141/6/2
f 138/3/2 139/3/2 142/3/2
f 141/6/2 138/6/2 142/6/2
f 142/3/2 139/3/2 143/3/2
f 141/3/2 142/3/2 146/3/2
f 146/3/2 142/3/2 147/3/2
f 143/6/2 144/6/2 148/6/2
f 148/6/2 144/6/2 149/6/2
f 145/3/2 146/3/2 150/3/2
f 150/3/2 146/3/2 151/3/2
f 152/4/2 153/4/2 154/4/2
f 154/4/2 153/4/2 155/4/2
f 155/4/2 153/4/2 156/4/2
f 156/4/2 153/4/2 157/4/2
f 156/6/2 157/6/2 158/6/2
f 158/6/2 157/6/2 159/6/2
f 160/10/2 161/10/2 162/10/2
f 162/10/2 161/10/2 163/10/2
f 164/9/2 165/9/2 168/9/2
f 168/9/2 165/9/2 169/9/2
f 168/8/2 169/8/2 170/8/2
f 170/8/2 169/8/2 171/8/2
f 170/9/2 171/9/2 172/9/2
f 172/9/2 171/9/2 173/9/2
f 166/9/2 167/9/2 174/9/2
f 174/9/2 167/9/2 175/9/2
f 176/2/2 177/2/2 178/2/2
f 178/2/2 177/2/2 179/2/2
f 178/10/2 179/10/2 181/10/2
f 181/10/2 179/10/2 182/10/2
f 181/8/2 182/8/2 184/8/2
f 182/8/2 183/8/2 184/8/2
f 180/8/2 181/8/2 184/8/2
f 184/8/2 183/8/2 185/8/2
f 184/9/2 185/9/2 186/9/2
f 186/9/2 185/9/2 187/9/2
f 192/9/3 189/9/3 188/9/3
f 193/8/3 190/8/3 189/8/3
f 193/9/3 189/9/3 192/9/3
f 194/8/3 193/8/3 192/8/3
f 195/8/3 190/8/3 193/8/3
f 195/8/3 193/8/3 194/8/3
f 196/9/3 195/9/3 194/9/3
f 197/8/3 190/8/3 195/8/3
f 197/9/3 195/9/3 196/9/3
f 198/9/3 191/9/3 190/9/3
f 198/8/3 190/8/3 197/8/3
f 199/9/3 191/9/3 198/9/3
f 208/5/3 201/5/3 200/5/3
f 209/9/3 202/9/3 201/9/3
f 209/5/3 201/5/3 208/5/3
f 210/9/3 202/9/3 209/9/3
f 211/8/3 204/8/3 203/8/3
f 212/9/3 205/9/3 204/9/3
f 212/8/3 204/8/3 211/8/3
f 213/9/3 205/9/3 212/9/3
f 214/9/3 205/9/3 213/9/3
f 215/9/3 205/9/3 214/9/3
f 216/4/3 207/4/3 206/4/3
f 217/4/3 207/4/3 216/4/3
f 222/1/3 219/1/3 218/1/3
f 223/1/3 219/1/3 222/1/3
f 224/4/3 221/4/3 220/4/3
f 225/4/3 221/4/3 224/4/3
f 231/8/3 227/8/3 226/8/3
f 232/9/3 230/9/3 229/9/3
f 232/8/3 227/8/3 231/8/3
f 232/9/3 229/9/3 228/9/3
f 232/9/3 228/9/3 227/9/3
f 233/9/3 230/9/3 232/9/3
f 241/2/3 235/2/3 234/2/3
f 242/10/3 236/10/3 235/10/3
f 242/2/3 235/2/3 241/2/3
f 243/10/3 236/10/3 242/10/3
f 244/10/3 236/10/3 243/10/3
f 245/10/3 236/10/3 244/10/3
f 247/4/3 238/4/3 237/4/3
f 248/6/3 240/6/3 239/6/3
f 248/4/3 238/4/3 247/4/3
f 248/6/3 241/6/3 240/6/3
f 248/6/3 239/6/3 238/6/3
f 249/8/3 242/8/3 241/8/3
f 249/6/3 241/6/3 248/6/3
f 250/7/3 243/7/3 242/7/3
f 250/8/3 242/8/3 249/8/3
f 251/8/3 244/8/3 243/8/3
f 251/7/3 243/7/3 250/7/3
f 252/7/3 245/7/3 244/7/3
f 252/8/3 244/8/3 251/8/3
f 253/1/3 246/1/3 245/1/3
f 253/7/3 245/7/3 252/7/3
f 254/1/3 246/1/3 253/1/3
f 259/7/3 250/7/3 249/7/3
f 260/8/3 251/8/3 250/8/3
f 260/7/3 250/7/3 259/7/3
f 261/7/3 252/7/3 251/7/3
f 261/8/3 251/8/3 260/8/3
f 262/8/3 253/8/3 252/8/3
f 262/7/3 252/7/3 261/7/3
f 263/8/3 253/8/3 262/8/3
f 265/3/3 256/3/3 255/3/3
f 266/3/3 256/3/3 265/3/3
f 267/4/3 258/4/3 257/4/3
f 268/6/3 259/6/3 258/6/3
f 268/4/3 258/4/3 267/4/3
f 269/8/3 260/8/3 259/8/3
f 269/6/3 259/6/3 268/6/3
f 270/7/3 261/7/3 260/7/3
f 270/8/3 260/8/3 269/8/3
f 271/8/3 262/8/3 261/8/3
f 271/7/3 261/7/3 270/7/3
f 272/7/3 263/7/3 262/7/3
f 272/8/3 262/8/3 271/8/3
f 273/1/3 264/1/3 263/1/3
f 273/7/3 263/7/3 272/7/3
f 274/1/3 264/1/3 273/1/3
f 275/2/3 270/2/3 269/2/3
f 276/10/3 272/10/3 271/10/3
f 276/2/3 270/2/3 275/2/3
f 276/10/3 273/10/3 272/10/3
f 276/10/3 271/10/3 270/10/3
f 277/10/3 273/10/3 276/10/3
f 280/9/3 279/9/3 278/9/3
f 281/9/3 279/9/3 280/9/3
f 284/9/3 283/9/3 282/9/3
f 285/9/3 283/9/3 284/9/3
f 288/9/3 287/9/3 286/9/3
f 289/9/3 287/9/3 288/9/3
f 292/6/3 291/6/3 290/6/3
f 293/6/3 291/6/3 292/6/3
f 298/6/3 295/6/3 294/6/3
f 299/6/3 295/6/3 298/6/3
f 300/6/3 297/6/3 296/6/3
f 301/6/3 297/6/3 300/6/3
f 302/9/4 303/9/4 310/9/4
f 303/5/4 304/5/4 311/5/4
f 310/9/4 303/9/4 311/9/4
f 304/2/4 305/2/4 312/2/4
f 311/5/4 304/5/4 312/5/4
f 305/10/4 306/10/4 313/10/4
f 312/2/4 305/2/4 313/2/4
f 313/10/4 306/10/4 314/10/4
f 307/4/4 308/4/4 316/4/4
f 308/6/4 309/6/4 317/6/4
f 316/4/4 308/4/4 317/4/4
f 309/6/4 310/6/4 317/6/4
f 310/6/4 311/6/4 317/6/4
f 311/6/4 312/6/4 317/6/4
f 312/8/4 313/8/4 318/8/4
f 317/6/4 312/6/4 318/6/4
f 318/8/4 313/8/4 319/8/4
f 318/7/4 319/7/4 322/7/4
f 322/7/4 319/7/4 323/7/4
f 320/4/4 321/4/4 324/4/4
f 321/6/4 322/6/4 325/6/4
f 324/4/4 321/4/4 325/4/4
f 322/8/4 323/8/4 326/8/4
f 325/6/4 322/6/4 326/6/4
f 326/8/4 323/8/4 327/8/4
f 314/1/4 315/1/4 328/1/4
f 328/1/4 315/1/4 329/1/4
f 326/2/4 327/2/4 330/2/4
f 327/10/4 328/10/4 331/10/4
f 330/2/4 327/2/4 331/2/4
f 331/10/4 328/10/4 332/10/4
f 333/9/4 334/9/4 338/9/4
f 338/9/4 334/9/4 339/9/4
f 335/8/4 336/8/4 341/8/4
f 336/9/4 337/9/4 342/9/4
f 341/8/4 336/8/4 342/8/4
f 342/9/4 337/9/4 343/9/4
f 340/10/4 341/10/4 344/10/4
f 344/10/4 341/10/4 345/10/4
f 345/8/4 346/8/4 348/8/4
f 346/9/4 347/9/4 349/9/4
f 348/8/4 346/8/4 349/8/4
f 349/9/4 347/9/4 350/9/4
f 351/9/4 352/9/4 353/9/4
f 353/9/4 352/9/4 354/9/4
f 355/9/4 356/9/4 357/9/4
f 357/9/4 356/9/4 358/9/4
f 358/9/4 356/9/4 359/9/4
f 359/3/4 360/3/4 363/3/4
f 363/3/4 360/3/4 364/3/4
f 361/9/4 362/9/4 365/9/4
f 362/9/4 363/9/4 365/9/4
f 365/9/4 363/9/4 366/9/4
f 367/9/4 368/9/4 369/9/4
f 369/9/4 368/9/4 370/9/4
f 371/3/4 372/3/4 373/3/4
f 373/3/4 372/3/4 374/3/4
f 375/3/4 376/3/4 377/3/4
f 377/3/4 376/3/4 378/3/4
f 379/6/4 380/6/4 384/6/4
f 380/3/4 381/3/4 385/3/4
f 384/6/4 380/6/4 385/6/4
f 385/3/4 381/3/4 386/3/4
f 382/6/4 383/6/4 387/6/4
f 387/6/4 383/6/4 388/6/4
f 393/4/5 390/4/5 389/4/5
f 394/4/5 390/4/5 393/4/5
f 395/4/5 392/4/5 391/4/5
f 396/4/5 392/4/5 395/4/5
f 399/9/5 398/9/5 397/9/5
f 400/9/5 398/9/5 399/9/5
f 403/9/5 402/9/5 401/9/5
f 404/9/5 402/9/5 403/9/5
f 407/9/5 406/9/5 405/9/5
f 408/9/5 406/9/5 407/9/5
f 411/5/5 410/5/5 409/5/5
f 412/5/5 410/5/5 411/5/5
f 413/9/5 412/9/5 411/9/5
f 414/9/5 412/9/5 413/9/5
f 419/7/5 416/7/5 415/7/5
f 420/7/5 416/7/5 419/7/5
f 421/2/5 418/2/5 417/2/5
f 422/2/5 418/2/5 421/2/5
f 427/10/5 424/10/5 423/10/5
f 427/10/5 426/10/5 425/10/5
f 427/10/5 425/10/5 424/10/5
f 428/10/5 426/10/5 427/10/5
f 431/6/5 430/6/5 429/6/5
f 432/6/5 430/6/5 431/6/5
f 439/8/5 434/8/5 433/8/5
f 440/8/5 434/8/5 439/8/5
f 441/1/5 436/1/5 435/1/5
f 442/1/5 436/1/5 441/1/5
f 443/8/5 438/8/5 437/8/5
f 444/8/5 438/8/5 443/8/5
f 449/8/5 446/8/5 445/8/5
f 450/8/5 446/8/5 449/8/5
f 451/8/5 448/8/5 447/8/5
f 452/8/5 448/8/5 451/8/5
f 455/6/5 454/6/5 453/6/5
f 456/6/5 454/6/5 455/6/5
f 461/9/5 458/9/5 457/9/5
f 462/8/5 459/8/5 458/8/5
f 462/9/5 458/9/5 461/9/5
f 463/9/5 460/9/5 459/9/5
f 463/8/5 459/8/5 462/8/5
f 464/9/5 460/9/5 463/9/5
f 465/1/5 462/1/5 461/1/5
f 466/1/5 462/1/5 465/1/5
f 467/1/5 464/1/5 463/1/5
f 468/1/5 464/1/5 467/1/5
f 471/1/5 470/1/5 469/1/5
f 472/1/5 470/1/5 471/1/5
f 473/9/5 472/9/5 471/9/5
f 474/9/5 472/9/5 473/9/5
f 475/9/5 472/9/5 474/9/5
f 476/9/5 472/9/5 475/9/5
f 477/6/5 475/6/5 474/6/5
f 478/6/5 475/6/5 477/6/5
f 481/6/5 480/6/5 479/6/5
f 482/6/5 480/6/5 481/6/5
f 483/4/6 484/4/6 487/4/6
f 487/4/6 484/4/6 488/4/6
f 485/4/6 486/4/6 489/4/6
f 489/4/6 486/4/6 490/4/6
f 491/9/6 492/9/6 493/9/6
f 493/9/6 492/9/6 494/9/6
f 495/9/6 496/9/6 497/9/6
f 497/9/6 496/9/6 498/9/6
f 499/9/6 500/9/6 501/9/6
f 501/9/6 500/9/6 502/9/6
f 503/9/6 504/9/6 505/9/6
f 505/9/6 504/9/6 506/9/6
f 507/10/6 508/10/6 509/10/6
f 509/10/6 508/10/6 510/10/6
f 511/3/6 512/3/6 513/3/6
f 513/3/6 512/3/6 514/3/6
f 515/3/6 516/3/6 517/3/6
f 517/3/6 516/3/6 518/3/6
f 519/9/6 520/9/6 522/9/6
f 522/9/6 520/9/6 523/9/6
f 521/9/6 522/9/6 525/9/6
f 523/9/6 524/9/6 525/9/6
f 522/9/6 523/9/6 525/9/6
f 525/9/6 524/9/6 526/9/6
f 521/9/6 525/9/6 527/9/6
f 527/9/6 525/9/6 528/9/6
f 526/9/6 524/9/6 529/9/6
f 529/9/6 524/9/6 530/9/6
f 528/9/6 525/9/6 531/9/6
f 531/9/6 525/9/6 532/9/6
f 526/9/6 529/9/6 533/9/6
f 533/9/6 529/9/6 534/9/6
f 532/3/6 533/3/6 535/3/6
f 535/3/6 533/3/6 536/3/6
f 537/6/6 538/6/6 539/6/6
f 539/6/6 538/6/6 540/6/6
f 541/3/6 542/3/6 543/3/6
f 543/3/6 542/3/6 544/3/6
